#N canvas 639 190 978 620 12;
#X obj 92 343 netsend -u -b;
#X msg 131 263 connect 127.0.0.1 8001;
#X obj 91 159 oscformat -f f play;
#X msg 90 96 1;
#X obj 38 63 oscformat -f f stop;
#X msg 35 17 1;
#X text 192 63 stop;
#X text 245 155 play;
#X text 145 100 -f f = transforme le chiffre en float : 1 en 1 . 0;
#X obj 364 261 oscformat -f f master volume;
#X text 575 261 master volume;
#X obj 364 196 nbx 5 17 -1e+37 1e+37 0 0 empty empty empty 0 -10 0 12 #00faff #000000 #000000 0 256;
#X obj 367 154 hsl 162 19 0 1 0 0 empty empty empty -2 -10 0 12 #ff0400 #000000 #000000 0 1;
#X connect 1 0 0 0;
#X connect 2 0 0 0;
#X connect 3 0 2 0;
#X connect 4 0 0 0;
#X connect 5 0 4 0;
#X connect 9 0 0 0;
#X connect 11 0 9 0;
#X connect 12 0 11 0;
