#N canvas 475 59 1469 866 12;
#X obj 735 676 netsend -u -b;
#X msg 860 490 connect 127.0.0.1 8001;
#X obj 820 386 oscformat -f f play;
#X msg 819 323 1;
#X obj 611 316 oscformat -f f stop;
#X msg 608 270 1;
#X text 765 316 stop;
#X text 974 382 play;
#X text 1017 383 -f f = transforme le chiffre en float : 1 en 1 . 0;
#X obj 1066 600 oscformat -f f master volume;
#X text 1277 600 master volume;
#X obj 1066 535 nbx 5 17 -1e+37 1e+37 0 0 empty empty empty 0 -10 0 12 #00faff #000000 #000000 0 256;
#X obj 1069 493 hsl 162 19 0 1 0 0 empty empty empty -2 -10 0 12 #ff0400 #000000 #000000 0 1;
#X obj 163 92 comport;
#X msg 88 53 devices;
#X obj 82 399 print;
#X obj 167 191 list trim;
#X obj 165 153 oscparse;
#X obj 161 121 pdchoco/slip_parse;
#X msg 329 60 close;
#X obj 162 294 tgl 19 0 empty empty empty 0 -10 0 12 #fcfcfc #000000 #000000 0 1;
#X obj 161 258 route bouton angle;
#X obj 230 292 nbx 5 17 -1e+37 1e+37 0 0 empty empty empty 0 -10 0 12 #fcfcfc #000000 #000000 0 256;
#X msg 174 42 baud 115200 \, open 4;
#X text 71 296 interupteur;
#X obj 666 184 select 1 0;
#X msg 1031 47 0;
#X msg 1078 46 1;
#X obj 569 120 tgl 19 0 empty empty empty 0 -10 0 12 #fcfcfc #000000 #000000 0 1;
#X obj 170 346 change;
#X text 37 345 flux en événement;
#X text 223 343 lien directe;
#X obj 314 481 change;
#X obj 314 427 pdchoco/stream_flip_flop;
#X obj 314 528 tgl 19 0 empty empty empty 0 -10 0 12 #fcfcfc #000000 #000000 0 1;
#X text 486 429 lien flip-flop/toggle;
#X obj 405 510 oscformat -f i vkb_midi 0 note 60;
#X text 447 559 -f i = nombre entier;
#X msg 456 466 127;
#X msg 403 465 0;
#X text 450 536 /vkb_midi/@/cc/# i;
#X obj 294 588 nbx 5 17 -1e+37 1e+37 0 0 empty empty empty 0 -10 0 12 #fcfcfc #000000 #000000 0 256;
#X obj 296 641 oscformat -f i vkb_midi 0 cc 14;
#X obj 241 496 * 127;
#X obj 245 535 / 4095;
#X connect 1 0 0 0;
#X connect 2 0 0 0;
#X connect 3 0 2 0;
#X connect 4 0 0 0;
#X connect 5 0 4 0;
#X connect 9 0 0 0;
#X connect 11 0 9 0;
#X connect 12 0 11 0;
#X connect 13 0 18 0;
#X connect 14 0 13 0;
#X connect 16 0 21 0;
#X connect 17 0 16 0;
#X connect 18 0 17 0;
#X connect 19 0 13 0;
#X connect 20 0 29 0;
#X connect 20 0 33 0;
#X connect 21 0 20 0;
#X connect 21 1 22 0;
#X connect 22 0 43 0;
#X connect 23 0 13 0;
#X connect 25 0 5 0;
#X connect 25 1 3 0;
#X connect 26 0 25 0;
#X connect 27 0 25 0;
#X connect 28 0 25 0;
#X connect 32 0 34 0;
#X connect 33 0 32 0;
#X connect 34 0 28 0;
#X connect 36 0 0 0;
#X connect 38 0 36 0;
#X connect 39 0 36 0;
#X connect 41 0 42 0;
#X connect 42 0 0 0;
#X connect 43 0 44 0;
#X connect 44 0 41 0;
