#N canvas 639 190 978 620 12;
#X obj 491 411 netsend -u -b;
#X msg 530 331 connect 127.0.0.1 8001;
#X obj 490 227 oscformat -f f play;
#X msg 489 164 1;
#X obj 437 131 oscformat -f f stop;
#X msg 434 85 1;
#X text 591 131 stop;
#X text 644 223 play;
#X text 544 168 -f f = transforme le chiffre en float : 1 en 1 . 0;
#X obj 763 329 oscformat -f f master volume;
#X text 974 329 master volume;
#X obj 763 264 nbx 5 17 -1e+37 1e+37 0 0 empty empty empty 0 -10 0 12 #00faff #000000 #000000 0 256;
#X obj 766 222 hsl 162 19 0 1 0 0 empty empty empty -2 -10 0 12 #ff0400 #000000 #000000 0 1;
#X obj 120 169 comport;
#X msg 45 130 devices;
#X obj 126 411 print;
#X obj 124 268 list trim;
#X obj 122 230 oscparse;
#X obj 118 198 pdchoco/slip_parse;
#X msg 286 137 close;
#X obj 119 371 tgl 19 0 empty empty empty 0 -10 0 12 #fcfcfc #000000 #000000 0 1;
#X obj 118 335 route bouton angle;
#X obj 187 369 nbx 5 17 -1e+37 1e+37 0 0 empty empty empty 0 -10 0 12 #fcfcfc #000000 #000000 0 256;
#X msg 131 119 baud 115200 \, open 4;
#X connect 1 0 0 0;
#X connect 2 0 0 0;
#X connect 3 0 2 0;
#X connect 4 0 0 0;
#X connect 5 0 4 0;
#X connect 9 0 0 0;
#X connect 11 0 9 0;
#X connect 12 0 11 0;
#X connect 13 0 18 0;
#X connect 14 0 13 0;
#X connect 16 0 21 0;
#X connect 17 0 16 0;
#X connect 18 0 17 0;
#X connect 19 0 13 0;
#X connect 21 0 20 0;
#X connect 21 1 22 0;
#X connect 23 0 13 0;
